<svg width="159" height="55" viewBox="0 0 159 55" fill="none" xmlns="http://www.w3.org/2000/svg">
<path d="M159 53H0V0H159V53ZM2 2V51H46V2H2Z" fill="white"/>
<g filter="url(#filter0_d_80117_55)">
<path d="M93.84 36V22.476H108.146V24.684H96.876V27.858H105.478V30.135H96.876V33.792H108.238L109.158 35.747C109.158 35.8083 108.951 35.8697 108.537 35.931C108.123 35.977 107.41 36 106.398 36H93.84Z" fill="#2352DE"/>
<path d="M131.78 35L126.2 23.26H129L132.76 31.36L133.3 32.8H133.48L134 31.36L142 14H144.5L140 24.5L134.98 35H131.78Z" fill="#2352DE"/>
<path d="M59.07 36V24.316L58.84 22.476H69.512C70.754 22.476 71.7047 22.6293 72.364 22.936C73.0387 23.2427 73.5063 23.7027 73.767 24.316C74.0277 24.914 74.158 25.6653 74.158 26.57V31.883C74.158 32.803 74.0277 33.5697 73.767 34.183C73.5217 34.781 73.0617 35.2333 72.387 35.54C71.7277 35.8467 70.7693 36 69.512 36H59.07ZM62.106 33.792H69.328C70.5087 33.792 71.1067 33.2477 71.122 32.159V26.294C71.122 25.8493 70.9917 25.4737 70.731 25.167C70.4703 24.845 70.0027 24.684 69.328 24.684H62.106V33.792Z" fill="#2352DE"/>
</g>
<g filter="url(#filter1_d_80117_55)">
<path d="M25.625 39.05C25.625 40.2 26.45 40.775 28.1 40.775C29.7667 40.775 30.6 40.2583 30.6 39.225C30.6 38.675 30.3167 38.225 29.75 37.875C29.1833 37.525 28.4917 37.2333 27.675 37C26.875 36.7667 26.0667 36.5 25.25 36.2C24.45 35.8833 23.7667 35.4 23.2 34.75C22.6333 34.0833 22.35 33.2583 22.35 32.275C22.35 28.0917 25.0417 26 30.425 26C32.3917 26 33.875 26.375 34.875 27.125C35.8917 27.8583 36.4 28.8833 36.4 30.2C36.4 30.6833 36.3333 31.15 36.2 31.6C36.0833 32.0333 35.9583 32.3417 35.825 32.525L35.625 32.825H31.2C31.5667 32.4417 31.75 31.9583 31.75 31.375C31.75 30.2917 31.0417 29.75 29.625 29.75C27.8417 29.75 26.95 30.3167 26.95 31.45C26.95 32.0167 27.2333 32.4667 27.8 32.8C28.3667 33.1333 29.05 33.4 29.85 33.6C30.6667 33.7833 31.4833 34.0167 32.3 34.3C33.1167 34.5833 33.8083 35.0583 34.375 35.725C34.9417 36.375 35.225 37.225 35.225 38.275C35.225 40.3917 34.5917 41.9667 33.325 43C32.0583 44.0167 30.1083 44.525 27.475 44.525C24.8417 44.525 23.0417 44.0583 22.075 43.125C21.3583 42.425 21 41.4583 21 40.225C21 39.7583 21.05 39.25 21.15 38.7L21.225 38.3H25.725L25.675 38.6C25.6417 38.7667 25.625 38.9167 25.625 39.05Z" fill="white"/>
</g>
<g filter="url(#filter2_d_80117_55)">
<path d="M10.625 19.05C10.625 20.2 11.45 20.775 13.1 20.775C14.7667 20.775 15.6 20.2583 15.6 19.225C15.6 18.675 15.3167 18.225 14.75 17.875C14.1833 17.525 13.4917 17.2333 12.675 17C11.875 16.7667 11.0667 16.5 10.25 16.2C9.45 15.8833 8.76667 15.4 8.2 14.75C7.63333 14.0833 7.35 13.2583 7.35 12.275C7.35 8.09167 10.0417 6 15.425 6C17.3917 6 18.875 6.375 19.875 7.125C20.8917 7.85833 21.4 8.88333 21.4 10.2C21.4 10.6833 21.3333 11.15 21.2 11.6C21.0833 12.0333 20.9583 12.3417 20.825 12.525L20.625 12.825H16.2C16.5667 12.4417 16.75 11.9583 16.75 11.375C16.75 10.2917 16.0417 9.75 14.625 9.75C12.8417 9.75 11.95 10.3167 11.95 11.45C11.95 12.0167 12.2333 12.4667 12.8 12.8C13.3667 13.1333 14.05 13.4 14.85 13.6C15.6667 13.7833 16.4833 14.0167 17.3 14.3C18.1167 14.5833 18.8083 15.0583 19.375 15.725C19.9417 16.375 20.225 17.225 20.225 18.275C20.225 20.3917 19.5917 21.9667 18.325 23C17.0583 24.0167 15.1083 24.525 12.475 24.525C9.84167 24.525 8.04167 24.0583 7.075 23.125C6.35833 22.425 6 21.4583 6 20.225C6 19.7583 6.05 19.25 6.15 18.7L6.225 18.3H10.725L10.675 18.6C10.6417 18.7667 10.625 18.9167 10.625 19.05Z" fill="white"/>
</g>
<defs>
<filter id="filter0_d_80117_55" x="54.84" y="14" width="93.66" height="30" filterUnits="userSpaceOnUse" color-interpolation-filters="sRGB">
<feFlood flood-opacity="0" result="BackgroundImageFix"/>
<feColorMatrix in="SourceAlpha" type="matrix" values="0 0 0 0 0 0 0 0 0 0 0 0 0 0 0 0 0 0 127 0" result="hardAlpha"/>
<feOffset dy="4"/>
<feGaussianBlur stdDeviation="2"/>
<feComposite in2="hardAlpha" operator="out"/>
<feColorMatrix type="matrix" values="0 0 0 0 0 0 0 0 0 0 0 0 0 0 0 0 0 0 0.25 0"/>
<feBlend mode="normal" in2="BackgroundImageFix" result="effect1_dropShadow_80117_55"/>
<feBlend mode="normal" in="SourceGraphic" in2="effect1_dropShadow_80117_55" result="shape"/>
</filter>
<filter id="filter1_d_80117_55" x="21" y="26" width="25.4" height="28.525" filterUnits="userSpaceOnUse" color-interpolation-filters="sRGB">
<feFlood flood-opacity="0" result="BackgroundImageFix"/>
<feColorMatrix in="SourceAlpha" type="matrix" values="0 0 0 0 0 0 0 0 0 0 0 0 0 0 0 0 0 0 127 0" result="hardAlpha"/>
<feOffset dx="5" dy="5"/>
<feGaussianBlur stdDeviation="2.5"/>
<feComposite in2="hardAlpha" operator="out"/>
<feColorMatrix type="matrix" values="0 0 0 0 1 0 0 0 0 1 0 0 0 0 1 0 0 0 0.25 0"/>
<feBlend mode="normal" in2="BackgroundImageFix" result="effect1_dropShadow_80117_55"/>
<feBlend mode="normal" in="SourceGraphic" in2="effect1_dropShadow_80117_55" result="shape"/>
</filter>
<filter id="filter2_d_80117_55" x="6" y="6" width="25.4" height="28.525" filterUnits="userSpaceOnUse" color-interpolation-filters="sRGB">
<feFlood flood-opacity="0" result="BackgroundImageFix"/>
<feColorMatrix in="SourceAlpha" type="matrix" values="0 0 0 0 0 0 0 0 0 0 0 0 0 0 0 0 0 0 127 0" result="hardAlpha"/>
<feOffset dx="5" dy="5"/>
<feGaussianBlur stdDeviation="2.5"/>
<feComposite in2="hardAlpha" operator="out"/>
<feColorMatrix type="matrix" values="0 0 0 0 1 0 0 0 0 1 0 0 0 0 1 0 0 0 0.25 0"/>
<feBlend mode="normal" in2="BackgroundImageFix" result="effect1_dropShadow_80117_55"/>
<feBlend mode="normal" in="SourceGraphic" in2="effect1_dropShadow_80117_55" result="shape"/>
</filter>
</defs>
</svg>
